<svg xmlns="http://www.w3.org/2000/svg" xmlns:xlink="http://www.w3.org/1999/xlink" width="1710" height="1310" viewbox="0 0 1710 1310">
  <!-- Genereated with twine2svg 0.0.1 -->
  <style>  .twine .passage rect {
    fill: #333;
    stroke: #eee;
    stroke-width: 2px;
  }
  .twine .passage.start rect {
    stroke-width: 4px;
  }
  .twine .link {
    stroke: #eee;
    stroke-width: 2px;
  }
  .twine text {
    fill: #eee;
  }
</style>
  <g class="twine">
    <path class="link" d="M254 254 L 454 254 M454 254 L 654 254 M454 254 L 454 454 M454 454 L 454 654 M654 254 L 854 254 M654 254 L 654 454 M454 654 L 654 654 M454 654 L 304 854 M854 254 L 854 454 M654 454 L 854 454 M854 454 L 1054 454 M854 454 L 854 654 M304 854 L 454 1054 M304 854 L 304 1254 M654 654 L 854 454 M454 1054 L 654 1054 M854 654 L 1054 654 M854 654 L 854 854 M1054 854 L 1254 1054 M1254 1054 L 1454 1054 M654 1054 L 854 1054 M854 1054 L 1054 1054 M1054 1054 L 1054 854 M1054 1054 L 1254 1054 M1454 1054 L 1454 1254 M1454 1054 L 1654 1054 M1454 654 L 1054 854 M1454 654 L 1254 1054 M1454 654 L 1454 854 M1454 854 L 1454 1054 M304 1254 L 654 1054 M54 54 L 254 254 M1054 654 L 1054 854 M1254 454 L 1254 654 M1254 454 L 1454 454 M1054 454 L 1254 454 M854 854 L 1054 854 M1254 654 L 1054 854 M1454 454 L 1454 654"/>
    <g class="passage">
      <title>A night out</title>
      <rect x="204" y="204" width="100" height="100"/>
    </g>
    <g class="passage">
      <title>An Introduction To and By The Artist</title>
      <rect x="404" y="204" width="100" height="100"/>
    </g>
    <g class="passage">
      <title>through the right door</title>
      <rect x="404" y="404" width="100" height="100"/>
    </g>
    <g class="passage">
      <title>through the left-hand door</title>
      <rect x="604" y="204" width="100" height="100"/>
    </g>
    <g class="passage">
      <title>an animal attempting to escape</title>
      <rect x="404" y="604" width="100" height="100"/>
    </g>
    <g class="passage">
      <title>forking</title>
      <rect x="804" y="204" width="100" height="100"/>
    </g>
    <g class="passage">
      <title>stay intact</title>
      <rect x="604" y="404" width="100" height="100"/>
    </g>
    <g class="passage">
      <title>Fight room</title>
      <rect x="804" y="404" width="100" height="100"/>
    </g>
    <g class="passage">
      <title>Follow the fennec</title>
      <rect x="254" y="804" width="100" height="100"/>
    </g>
    <g class="passage">
      <title>Escape to fight room</title>
      <rect x="604" y="604" width="100" height="100"/>
    </g>
    <g class="passage">
      <title>Wide open spaces</title>
      <rect x="404" y="1004" width="100" height="100"/>
    </g>
    <g class="passage">
      <title>Unwind room</title>
      <rect x="804" y="604" width="100" height="100"/>
    </g>
    <g class="passage">
      <title>Small exhibits</title>
      <rect x="1004" y="804" width="100" height="100"/>
    </g>
    <g class="passage">
      <title>out into the night once more</title>
      <rect x="1204" y="1004" width="100" height="100"/>
    </g>
    <g class="passage">
      <title>Cave</title>
      <rect x="604" y="1004" width="100" height="100"/>
    </g>
    <g class="passage">
      <title>Cramped spaces</title>
      <rect x="804" y="1004" width="100" height="100"/>
    </g>
    <g class="passage">
      <title>Up and through</title>
      <rect x="1004" y="1004" width="100" height="100"/>
    </g>
    <g class="passage">
      <title>About</title>
      <rect x="1404" y="1004" width="100" height="100"/>
    </g>
    <g class="passage">
      <title>knocked out</title>
      <rect x="1404" y="604" width="100" height="100"/>
    </g>
    <g class="passage">
      <title>Dying is quite painful, you find</title>
      <rect x="1404" y="804" width="100" height="100"/>
    </g>
    <g class="passage">
      <title>Return</title>
      <rect x="1404" y="1204" width="100" height="100"/>
    </g>
    <g class="passage">
      <title>All alone</title>
      <rect x="254" y="1204" width="100" height="100"/>
    </g>
    <g class="passage start">
      <title>Dear, Also, The Tree That Was Felled - Gallery Exhibition</title>
      <rect x="4" y="4" width="100" height="100"/>
    </g>
    <g class="passage">
      <title>Startup: Variable initialization</title>
      <rect x="204" y="4" width="100" height="100"/>
    </g>
    <g class="passage">
      <title>/dev/null</title>
      <rect x="1604" y="1004" width="100" height="100"/>
    </g>
    <g class="passage">
      <title>Header: Life check</title>
      <rect x="404" y="4" width="100" height="100"/>
    </g>
    <g class="passage">
      <title>Debug-header: Variables</title>
      <rect x="804" y="4" width="100" height="100"/>
    </g>
    <g class="passage">
      <title>Seduction</title>
      <rect x="1004" y="604" width="100" height="100"/>
    </g>
    <g class="passage">
      <title>Fight</title>
      <rect x="1204" y="404" width="100" height="100"/>
    </g>
    <g class="passage">
      <title>Intro to fight</title>
      <rect x="1004" y="404" width="100" height="100"/>
    </g>
    <g class="passage">
      <title>To the small exhibits</title>
      <rect x="804" y="804" width="100" height="100"/>
    </g>
    <g class="passage">
      <title>You win</title>
      <rect x="1204" y="604" width="100" height="100"/>
    </g>
    <g class="passage">
      <title>You lose</title>
      <rect x="1404" y="404" width="100" height="100"/>
    </g>
    <g class="passage">
      <title>Include: The Wanderer</title>
      <rect x="1004" y="4" width="100" height="100"/>
    </g>
    <g class="passage">
      <title>Include: The Rebel</title>
      <rect x="1154" y="4" width="100" height="100"/>
    </g>
    <g class="passage">
      <title>Include: The Fighter</title>
      <rect x="1304" y="4" width="100" height="100"/>
    </g>
    <g class="passage">
      <title>Include: The Lover</title>
      <rect x="1454" y="4" width="100" height="100"/>
    </g>
    <g class="passage">
      <title>Include: The Medium</title>
      <rect x="1604" y="4" width="100" height="100"/>
    </g>
    <g class="passage">
      <title>Debug-startup: Variable initialization</title>
      <rect x="604" y="4" width="100" height="100"/>
    </g>
  </g>
</svg>
